/* XPM */
static char * galactrum32_xpm[] = {
"32 32 491 2",
"  	c None",
". 	c #061315",
"+ 	c #081518",
"@ 	c #071518",
"# 	c #061518",
"$ 	c #0B1B1E",
"% 	c #08181C",
"& 	c #0A1A1E",
"* 	c #05161A",
"= 	c #0A1B1F",
"- 	c #091A1D",
"; 	c #06181B",
"> 	c #07181B",
", 	c #091A1E",
"' 	c #031418",
") 	c #0E1E22",
"! 	c #09191D",
"~ 	c #08181B",
"{ 	c #08191C",
"] 	c #0C1A1E",
"^ 	c #041114",
"/ 	c #071316",
"( 	c #0E1A1D",
"_ 	c #0C1A1D",
": 	c #071619",
"< 	c #0A1A1D",
"[ 	c #08191D",
"} 	c #081A1E",
"| 	c #05171B",
"1 	c #0A1D20",
"2 	c #0A1D21",
"3 	c #06191C",
"4 	c #081B1F",
"5 	c #0B1E22",
"6 	c #0F2227",
"7 	c #091C1F",
"8 	c #05181C",
"9 	c #06161B",
"0 	c #0F1E21",
"a 	c #081416",
"b 	c #081619",
"c 	c #041318",
"d 	c #06171A",
"e 	c #05171A",
"f 	c #091B1F",
"g 	c #071A1E",
"h 	c #091D21",
"i 	c #0B1F23",
"j 	c #061B20",
"k 	c #04191D",
"l 	c #081E23",
"m 	c #091E23",
"n 	c #0A2024",
"o 	c #05191E",
"p 	c #051B20",
"q 	c #071D21",
"r 	c #081D21",
"s 	c #091D22",
"t 	c #0C2024",
"u 	c #051A1F",
"v 	c #061A1E",
"w 	c #041417",
"x 	c #051317",
"y 	c #051114",
"z 	c #091518",
"A 	c #07171B",
"B 	c #0B1D20",
"C 	c #06191D",
"D 	c #0A1F23",
"E 	c #0D2227",
"F 	c #091F24",
"G 	c #0C2328",
"H 	c #0A2126",
"I 	c #092025",
"J 	c #0E262A",
"K 	c #071F23",
"L 	c #041A1F",
"M 	c #0C2226",
"N 	c #0A2025",
"O 	c #091B1E",
"P 	c #051215",
"Q 	c #0A1619",
"R 	c #061316",
"S 	c #0D1F23",
"T 	c #081C20",
"U 	c #0D2226",
"V 	c #061C21",
"W 	c #071D22",
"X 	c #0C2227",
"Y 	c #082126",
"Z 	c #082026",
"` 	c #051E23",
" .	c #0B2328",
"..	c #0B242A",
"+.	c #0E262B",
"@.	c #0A2328",
"#.	c #0A2227",
"$.	c #082127",
"%.	c #0A2228",
"&.	c #0C2429",
"*.	c #081C22",
"=.	c #07181C",
"-.	c #0C1B1E",
";.	c #081A1D",
">.	c #0A1F25",
",.	c #061E23",
"'.	c #092228",
").	c #0F292E",
"!.	c #062025",
"~.	c #0E292F",
"{.	c #09242A",
"].	c #052026",
"^.	c #0B262C",
"/.	c #082228",
"(.	c #0B252A",
"_.	c #082227",
":.	c #092227",
"<.	c #0C252B",
"[.	c #081E22",
"}.	c #081D22",
"|.	c #07171C",
"1.	c #071C20",
"2.	c #092024",
"3.	c #11292E",
"4.	c #0F282D",
"5.	c #0D282E",
"6.	c #072329",
"7.	c #0A252C",
"8.	c #0A262B",
"9.	c #0A252B",
"0.	c #0C262D",
"a.	c #0A262C",
"b.	c #0E2930",
"c.	c #0C272D",
"d.	c #09252B",
"e.	c #0B252B",
"f.	c #0A2329",
"g.	c #082024",
"h.	c #071A1D",
"i.	c #0E1D21",
"j.	c #0D1D20",
"k.	c #05191D",
"l.	c #0A1F24",
"m.	c #0B2126",
"n.	c #0D282C",
"o.	c #0D292F",
"p.	c #08252B",
"q.	c #5E7074",
"r.	c #808A8D",
"s.	c #748386",
"t.	c #3C5358",
"u.	c #001319",
"v.	c #112D33",
"w.	c #092429",
"x.	c #10292F",
"y.	c #081F24",
"z.	c #061D21",
"A.	c #07171A",
"B.	c #06161A",
"C.	c #0A1C20",
"D.	c #0D2125",
"E.	c #0D2428",
"F.	c #061F24",
"G.	c #072228",
"H.	c #0E2A30",
"I.	c #021F26",
"J.	c #728386",
"K.	c #FFFFFF",
"L.	c #E6E9EA",
"M.	c #20393F",
"N.	c #062329",
"O.	c #09262C",
"P.	c #0C282E",
"Q.	c #0E252A",
"R.	c #0E2429",
"S.	c #09191C",
"T.	c #0A1E23",
"U.	c #051A20",
"V.	c #071F24",
"W.	c #072328",
"X.	c #0B272D",
"Y.	c #0A272D",
"Z.	c #627579",
"`.	c #C0C8CA",
" +	c #7E888C",
".+	c #8E9C9F",
"++	c #F5F6F6",
"@+	c #FEFEFE",
"#+	c #F8F9F9",
"$+	c #05242A",
"%+	c #09252C",
"&+	c #0E2024",
"*+	c #071C21",
"=+	c #0D2429",
"-+	c #0A2429",
";+	c #052228",
">+	c #0F2C32",
",+	c #001A20",
"'+	c #5D7175",
")+	c #012127",
"!+	c #0C2C32",
"~+	c #0C2B31",
"{+	c #001E23",
"]+	c #D6DBDC",
"^+	c #7F8D91",
"/+	c #08262C",
"(+	c #082025",
"_+	c #0D2329",
":+	c #06171B",
"<+	c #0D2023",
"[+	c #081C21",
"}+	c #0B2226",
"|+	c #0E272C",
"1+	c #0B262A",
"2+	c #0D2A30",
"3+	c #43595F",
"4+	c #DDE1E2",
"5+	c #001F26",
"6+	c #0B2A31",
"7+	c #0C2B32",
"8+	c #0E2D34",
"9+	c #0D2C33",
"0+	c #455C62",
"a+	c #D8DDDE",
"b+	c #022229",
"c+	c #0C2A30",
"d+	c #082329",
"e+	c #0E282E",
"f+	c #092126",
"g+	c #0D2327",
"h+	c #0C1D20",
"i+	c #0E272D",
"j+	c #0D272D",
"k+	c #062127",
"l+	c #06242A",
"m+	c #6A7A7E",
"n+	c #9AA6A9",
"o+	c #06252C",
"p+	c #0A2930",
"q+	c #102F36",
"r+	c #0F2E34",
"s+	c #496065",
"t+	c #40595D",
"u+	c #032229",
"v+	c #0C292F",
"w+	c #0D2930",
"x+	c #082328",
"y+	c #0C1F22",
"z+	c #051519",
"A+	c #03161A",
"B+	c #0C2125",
"C+	c #072025",
"D+	c #102C32",
"E+	c #102E35",
"F+	c #6C7A7E",
"G+	c #96A4A7",
"H+	c #00121A",
"I+	c #001016",
"J+	c #001D24",
"K+	c #00161D",
"L+	c #001017",
"M+	c #00161E",
"N+	c #07272F",
"O+	c #0D2C32",
"P+	c #0A282F",
"Q+	c #09262D",
"R+	c #062228",
"S+	c #041F25",
"T+	c #0D252A",
"U+	c #0B1C20",
"V+	c #0A1C21",
"W+	c #091E22",
"X+	c #0B2227",
"Y+	c #071F25",
"Z+	c #072127",
"`+	c #052329",
" @	c #627277",
".@	c #95A2A5",
"+@	c #ABB5B8",
"@@	c #BDC6C8",
"#@	c #A0ADB0",
"$@	c #919FA3",
"%@	c #98A6A8",
"&@	c #ADB8BA",
"*@	c #B3BBBD",
"=@	c #BBC4C6",
"-@	c #BDC5C7",
";@	c #7C8B8E",
">@	c #344E53",
",@	c #0B262B",
"'@	c #091C20",
")@	c #163036",
"!@	c #AFB8BA",
"~@	c #7E8E91",
"{@	c #77898C",
"]@	c #95A2A6",
"^@	c #06272D",
"/@	c #2E484F",
"(@	c #C4CBCD",
"_@	c #99A5A8",
":@	c #19373D",
"<@	c #1C383D",
"[@	c #17343A",
"}@	c #162F36",
"|@	c #506469",
"1@	c #CFD6D7",
"2@	c #F9FAF9",
"3@	c #5C6F72",
"4@	c #011B22",
"5@	c #0A242A",
"6@	c #0D262C",
"7@	c #00151B",
"8@	c #F6F7F7",
"9@	c #0D232A",
"0@	c #0A292F",
"a@	c #6B7B7F",
"b@	c #99A7AA",
"c@	c #001E24",
"d@	c #D3D9DB",
"e@	c #F1F1F1",
"f@	c #FDFDFD",
"g@	c #00181F",
"h@	c #A8B3B5",
"i@	c #5C6C70",
"j@	c #041518",
"k@	c #06181C",
"l@	c #0B2025",
"m@	c #052127",
"n@	c #B3BBBE",
"o@	c #667A7E",
"p@	c #708084",
"q@	c #96A3A6",
"r@	c #04252B",
"s@	c #B0BABB",
"t@	c #D5DADB",
"u@	c #DADFE0",
"v@	c #F2F3F4",
"w@	c #001A21",
"x@	c #DCE0E1",
"y@	c #263F45",
"z@	c #072227",
"A@	c #0B1F25",
"B@	c #0C1E23",
"C@	c #07191C",
"D@	c #071E23",
"E@	c #011E24",
"F@	c #596B6F",
"G@	c #CAD0D1",
"H@	c #F7F9F9",
"I@	c #A9B4B7",
"J@	c #CCD3D4",
"K@	c #7A8C90",
"L@	c #00151D",
"M@	c #5F6F73",
"N@	c #284348",
"O@	c #00080F",
"P@	c #DBDFE0",
"Q@	c #C8CFD1",
"R@	c #949FA2",
"S@	c #122D33",
"T@	c #071B1E",
"U@	c #0D1E22",
"V@	c #081C1F",
"W@	c #061B1F",
"X@	c #0D2328",
"Y@	c #0C242A",
"Z@	c #0F2B31",
"`@	c #012026",
" #	c #001920",
".#	c #78868A",
"+#	c #BEC6C8",
"@#	c #B0BBBD",
"##	c #B3BDC0",
"$#	c #A9B5B7",
"%#	c #AFB9BC",
"&#	c #B8C2C4",
"*#	c #A5B0B3",
"=#	c #D0D6D7",
"-#	c #133137",
";#	c #00141A",
">#	c #07242A",
",#	c #051F25",
"'#	c #0D282F",
")#	c #0D2B31",
"!#	c #54696D",
"~#	c #03242B",
"{#	c #05252C",
"]#	c #06262D",
"^#	c #03232A",
"/#	c #334C52",
"(#	c #F0F2F2",
"_#	c #001D25",
":#	c #0F2C33",
"<#	c #08242A",
"[#	c #0B2429",
"}#	c #04171B",
"|#	c #0C2327",
"1#	c #102A30",
"2#	c #07242B",
"3#	c #1E393E",
"4#	c #0B2A30",
"5#	c #001E25",
"6#	c #BCC5C7",
"7#	c #F1F3F3",
"8#	c #00141B",
"9#	c #0F2226",
"0#	c #041E23",
"a#	c #07232A",
"b#	c #102D33",
"c#	c #09272D",
"d#	c #9DA7A9",
"e#	c #FDFEFE",
"f#	c #6F8185",
"g#	c #364E53",
"h#	c #4C6167",
"i#	c #C1C8CA",
"j#	c #F1F2F3",
"k#	c #041619",
"l#	c #0E1F23",
"m#	c #0C262C",
"n#	c #022027",
"o#	c #D2D7D8",
"p#	c #E4E7E8",
"q#	c #0F282C",
"r#	c #0A191D",
"s#	c #0C1F23",
"t#	c #072026",
"u#	c #00171E",
"v#	c #5B6B6F",
"w#	c #A4B0B2",
"x#	c #C6CBCC",
"y#	c #A4AEB1",
"z#	c #142F35",
"A#	c #1A3338",
"B#	c #001C23",
"C#	c #062026",
"D#	c #051418",
"E#	c #0B191D",
"F#	c #0B272C",
"G#	c #0B262D",
"H#	c #09242B",
"I#	c #0C272E",
"J#	c #112C32",
"K#	c #0D252B",
"L#	c #071519",
"M#	c #061417",
"N#	c #102125",
"O#	c #0D2024",
"P#	c #061F25",
"Q#	c #092329",
"R#	c #102B31",
"S#	c #0B252C",
"T#	c #0C272C",
"U#	c #0B2329",
"V#	c #081F25",
"W#	c #10252A",
"X#	c #08161A",
"Y#	c #071417",
"Z#	c #091F23",
"`#	c #061E24",
" $	c #0D242A",
".$	c #071E22",
"+$	c #091D20",
"@$	c #041317",
"#$	c #081517",
"$$	c #071416",
"%$	c #0B1D21",
"&$	c #0F252A",
"*$	c #0B171A",
"=$	c #0C1C1F",
"-$	c #0A1E22",
";$	c #04191E",
">$	c #0C2126",
",$	c #0B1F24",
"'$	c #06191E",
")$	c #0C1B1F",
"!$	c #0C181B",
"~$	c #08171B",
"{$	c #07191D",
"]$	c #07161A",
"^$	c #081417",
"/$	c #061215",
"($	c #0E1D20",
"_$	c #0C1C20",
":$	c #061619",
"<$	c #0C1D21",
"[$	c #051619",
"}$	c #0A1B1E",
"|$	c #08181D",
"1$	c #09181B",
"2$	c #071415",
"      . + @ # $ % & * = - - ; > , - ' ) > ! ~ { ~ ] @ ^ /       ",
"    ( _ : < [ [ } | 1 2 3 4 5 6 2 5 4 7 2 8 } = ; > 9 0 _ /     ",
"  a b c d e f g h i j k l m n j o p q r s t u v 4 } - [ w x y   ",
"z @ A - B C D E u l F G H I I l J K H G F L M N m D 4 O ! < P Q ",
"R : % S T U V W X H Y Z ` Z  ...+.@.#.$.%.#.&.W p V *.T S =.-.P ",
"@ d ;.4 m >.N ,.Y @.'.).!.~.{.].{.^./.(._._.:.<. .F [.}.4 , % @ ",
": |.} 1.W 2.3.4./.{.^.^.5.6.7.8.9.0.a.b.c.d.e.e.f.#.g.l 1.h.=.i.",
"j.; k.l.m.H '.n.9.~.9.d.o.p.q.r.s.t.u.v.a.5.c.].w.x.y.z.l.2 ;.A.",
"B.C.D.E.H F.e.G.G.d.H.I.J.K.K.K.K.K.L.M.N.O.P.0.7._...Q.R.h | S.",
"~ C.T.U.V.).W.9.X.Y.p.Z.K.K.`. +.+++@+#+$+Y.%+a.{.{... .p v &+d ",
"& } *+=+Z -+d.o.;+>+,+K.K.'+)+!+~+{+]+K.^+/+>+H.G.c.'.(+_+T f { ",
":+<+[+}+|+1+b.d.2+2+3+K.4+5+6+7+8+9+0+K.a+b+c+p.6.d+e+f+m.g+1 h+",
"=.g }.G i+j+k+d.p.l+m+K.n+o+p+7+9+q+r+s+t+u+l+v+w+d.x+:.G g+y+z+",
"= A+B+l C+x+o.D+>+E+F+K.G+H+I+J+K+L+M+N+7+O+P+Q+R+5.S+T+K j g U+",
"{ V+W+X+Y+Z+^.N.`+ @.@K.+@@@#@$@%@&@*@=@-@;@>@K+d.^.,@%.X+j C ! ",
"> '@1.N C+/.)@!@K.~@{@K.]@^@/@(@_@:@<@[@}@|@1@2@3@4@5@Z N j C - ",
", '@m G 6@7@8@K.9@0@a@K.b@c@d@K.e@K.K.K.f@K+g@h@K.i@9.@.G M 2 j@",
"{ k@l@G &.m@n@K.o@g@p@K.q@r@s@K.K.t@u@K.v@w@c.x@K.y@z@<.G A@B@C@",
"! 2 m D@Y x+E@F@G@H@I@J@K@L@L+M@N@O@L@P@Q@h@K.R@S@c.e.@.D@*+T@U@",
"= V@W@X@Y@,@^.Z@`@ #.#4++#@###$#%#&#*#x@=#-#;#>#6.~.{.V.=+l@2 , ",
"A 4 l.W (+,#'#o.v+)#!#K.+#~#{#]#b+^#/#K.(#_#:#N.a.<#w.[#W *+}#U+",
"& } [+|#,.1#d+X.p.2#9.K.K.3#~+4#0@5#6#K.7#8#2+O.c.X.'.f+G o 9#> ",
"B.f r l (+0#9.^.a#b#c#d#K.e#f#g#h#i#7#K.j#J+v+X.<#W.f.f+l 1.k#{ ",
"< l#T m.G 4.m#k+<#a.6.n#o#K.K.K.K.j#g@p#(#;#Y.5.G.6@q#I }+i &+r#",
"% e s#l@R.f+t#z@^.5.X.6.u#v#w#x#y#z#X.A#x#B#^.^.C#[#V.X@l@&+;.D#",
"E#[ | T.F N (+i+-+F#R+~.^.G#k+I.H#I#].J#E@^.{.(...K#I p D '@% L#",
"M#9 N#O#r m.H H :.P#e.e.Z+Q#c.R#S#T#{.5@e.C#:.U#V#y.[.W#O#[ < X#",
"Y#A.[ | v u Z#l H G Y+` :.@.Y@C+`#P#Y f+#. $,.D@F .$}.+$| e @$#$",
"$$Y#A.! %$C T.E L l F X@H I I D@&$l H G F L m.N m D 4 , - r#P *$",
"  / @ =$=.U@3 C -$s *+1.;$*+l.n >$m m W m W+,$'$}#k@[ =.)$L#!$  ",
"    $$@ ~$% { * C@O } &+| D.4 }#f 2 {$C.{${$;.B = A d ]$@ ^$    ",
"      /$Y#@ ($_$:$% ! S.<$[$[ > =.}$|$<$- { { ! ~$1$@ Y#2$      "};
