/* XPM */
static char * galactrum16_xpm[] = {
"16 16 170 2",
"  	c None",
". 	c #0C181B",
"+ 	c #08171A",
"@ 	c #08181C",
"# 	c #07181C",
"$ 	c #091B1F",
"% 	c #081A1D",
"& 	c #0A1C20",
"* 	c #081A1E",
"= 	c #07191D",
"- 	c #091A1D",
"; 	c #08161A",
"> 	c #091518",
", 	c #081517",
"' 	c #06161A",
") 	c #07191C",
"! 	c #0B1E23",
"~ 	c #081D21",
"{ 	c #071D22",
"] 	c #092025",
"^ 	c #081E22",
"/ 	c #071E22",
"( 	c #0A2024",
"_ 	c #081D22",
": 	c #091D21",
"< 	c #091A1E",
"[ 	c #07161A",
"} 	c #051114",
"| 	c #061518",
"1 	c #0A1B1F",
"2 	c #0A1F24",
"3 	c #061C21",
"4 	c #0B2227",
"5 	c #0A2329",
"6 	c #082127",
"7 	c #092328",
"8 	c #0B252B",
"9 	c #092228",
"0 	c #092227",
"a 	c #0A2227",
"b 	c #071E23",
"c 	c #08191C",
"d 	c #071B1F",
"e 	c #092024",
"f 	c #0F282D",
"g 	c #0A252B",
"h 	c #0A262C",
"i 	c #001A20",
"j 	c #374C51",
"k 	c #294146",
"l 	c #011B22",
"m 	c #0B272D",
"n 	c #09242A",
"o 	c #0C252B",
"p 	c #08191D",
"q 	c #0B2024",
"r 	c #082329",
"s 	c #09252B",
"t 	c #102D33",
"u 	c #F7F8F8",
"v 	c #DFE1E2",
"w 	c #F8F9F9",
"x 	c #CFD5D6",
"y 	c #0B262D",
"z 	c #0D252B",
"A 	c #0A2429",
"B 	c #0C282E",
"C 	c #0B282E",
"D 	c #96A1A4",
"E 	c #8C9A9D",
"F 	c #001E25",
"G 	c #00161C",
"H 	c #DBDFE1",
"I 	c #5B6F74",
"J 	c #0D2A30",
"K 	c #0A2328",
"L 	c #0C2126",
"M 	c #06181C",
"N 	c #0A2025",
"O 	c #0B252A",
"P 	c #022128",
"Q 	c #C2C8C9",
"R 	c #3E5258",
"S 	c #00181E",
"T 	c #00161E",
"U 	c #05222A",
"V 	c #09282F",
"W 	c #08262D",
"X 	c #082227",
"Y 	c #091F23",
"Z 	c #072127",
"` 	c #284045",
" .	c #89979A",
"..	c #CBD2D3",
"+.	c #829396",
"@.	c #8C9B9F",
"#.	c #7C8E92",
"$.	c #65797C",
"%.	c #6A7B7F",
"&.	c #919C9F",
"*.	c #0E292F",
"=.	c #081E23",
"-.	c #001319",
";.	c #FFFFFF",
">.	c #001017",
",.	c #C4CACC",
"'.	c #3A5358",
").	c #7C888C",
"!.	c #506367",
"~.	c #BAC1C3",
"{.	c #062026",
"].	c #0C2227",
"^.	c #0A1C1F",
"/.	c #0D282E",
"(.	c #7E8C8F",
"_.	c #B7BFC2",
":.	c #7C8A8E",
"<.	c #707C80",
"[.	c #616E72",
"}.	c #929CA0",
"|.	c #95A3A6",
"1.	c #727F83",
"2.	c #001D23",
"3.	c #08262C",
"4.	c #9FAAAC",
"5.	c #697B7F",
"6.	c #001B22",
"7.	c #000B12",
"8.	c #C0C8CA",
"9.	c #778387",
"0.	c #0C2A30",
"a.	c #1D373D",
"b.	c #ACB6B8",
"c.	c #D9DEDF",
"d.	c #B6BDBF",
"e.	c #788588",
"f.	c #0D292F",
"g.	c #0B2328",
"h.	c #0B2126",
"i.	c #0C272C",
"j.	c #0B272C",
"k.	c #0D262C",
"l.	c #5B6D71",
"m.	c #284046",
"n.	c #042026",
"o.	c #384E53",
"p.	c #0B262B",
"q.	c #0B2429",
"r.	c #0B1F23",
"s.	c #0B1D21",
"t.	c #071C21",
"u.	c #091F24",
"v.	c #092127",
"w.	c #0D272C",
"x.	c #082228",
"y.	c #0B2329",
"z.	c #082025",
"A.	c #081619",
"B.	c #071316",
"C.	c #09191C",
"D.	c #071D21",
"E.	c #0A191D",
"F.	c #071619",
"G.	c #0A1A1E",
"H.	c #07181B",
"I.	c #091B1E",
"J.	c #091A1F",
"K.	c #09181C",
"L.	c #071519",
"M.	c #081417",
"  . + @ # $ % & & * = - @ ; >   ",
", ' ) ! ~ { ] ^ / ( _ ^ : < [ } ",
"| 1 2 3 4 5 6 7 8 9 0 a b _ $ + ",
"c d e f g h i j k l m n o / ~ - ",
"p q a r s t u v w x i y r z ~ - ",
"1 ( A B C D E F G H I J r K L 1 ",
"M N O m P Q R S T U V W y X e < ",
"< Y Z `  ...+.@.#.$.%.&.*.A =.= ",
"p 4 -.;.>.,.'.;.;.;.).!.~.{.].* ",
"^.=.O /.(._.:.<.[.}.|.1.2.9 N & ",
"p 2 0 m 3.4.5.6.7.8.9.0.y K { ^.",
"1 ^ 0 g m a.;.b.c.d.e.f.r g.Y - ",
"@ : h.9 i.j.k.l.m.n.o.p.q.=.r.' ",
"| s.t.u.v.X X w.x.9 y.z.=.q = A.",
"B.C.1 : t.Y { u.L N D.2 d p E.> ",
"  B.F.G.H.1 I.M $ J.) - K.L.M.  "};
